<svg height="512" viewBox="0 0 512 512" width="512" xmlns="http://www.w3.org/2000/svg" xmlns:xlink="http://www.w3.org/1999/xlink"><linearGradient id="a" gradientUnits="userSpaceOnUse" x1="21.969" x2="552.282" y1="490.031" y2="-40.282"><stop offset="0" stop-color="#003f8a"/><stop offset=".518" stop-color="#00d7df"/><stop offset="1" stop-color="#006df0"/></linearGradient><linearGradient id="c" x1="-1.855" x2="528.458" xlink:href="#a" y1="466.207" y2="-64.106"/><linearGradient id="d" x1="103.212" x2="633.525" xlink:href="#a" y1="571.274" y2="40.961"/><g><path d="m431.36 80.64a248 248 0 1 0 -350.72 350.72 248 248 0 1 0 350.72-350.72zm-11.31 339.41a232 232 0 0 1 -328.1-328.1 232 232 0 0 1 328.1 328.1z" fill="url(#a)"/><path d="m328 336h-144a8 8 0 0 1 -8-8v-144a8 8 0 0 1 8-8h144a8 8 0 0 1 8 8v144a8 8 0 0 1 -8 8zm-136-16h128v-128h-128z" fill="url(#a)"/><path d="m176 464.7a7.973 7.973 0 0 1 -2.962-.571 224.076 224.076 0 0 1 -141.038-208.129 8 8 0 0 1 16 0 208.074 208.074 0 0 0 130.964 193.271 8 8 0 0 1 -2.964 15.429z" fill="url(#c)"/><path d="m216.009 476.305a8.072 8.072 0 0 1 -1.482-.138c-5.557-1.041-11.141-2.309-16.6-3.77a8 8 0 1 1 4.138-15.455c5.062 1.355 10.245 2.533 15.4 3.5a8 8 0 0 1 -1.464 15.865z" fill="url(#d)"/></g></svg>